<?xml version="1.0" encoding="utf-8"?>
<!-- Generator: Adobe Illustrator 16.2.0, SVG Export Plug-In . SVG Version: 6.00 Build 0)  -->
<!DOCTYPE svg PUBLIC "-//W3C//DTD SVG 1.1//EN" "http://www.w3.org/Graphics/SVG/1.1/DTD/svg11.dtd">
<svg version="1.1" id="Layer_1" xmlns="http://www.w3.org/2000/svg" xmlns:xlink="http://www.w3.org/1999/xlink" x="0px" y="0px"
	 width="99.167px" height="12.833px" viewBox="0 0 99.167 12.833" enable-background="new 0 0 99.167 12.833" xml:space="preserve">
<g>
	<path fill="#FFFFFF" d="M2.358,10.114h5.096v1.204H1V1.266h1.358V10.114z"/>
	<path fill="#FFFFFF" d="M20.866,6.292c0,0.364-0.035,0.747-0.105,1.148c-0.07,0.401-0.182,0.798-0.336,1.19
		c-0.154,0.392-0.354,0.766-0.602,1.12c-0.248,0.354-0.553,0.67-0.917,0.945c-0.364,0.275-0.789,0.493-1.274,0.651
		c-0.485,0.159-1.041,0.238-1.666,0.238c-0.625,0-1.181-0.08-1.666-0.238c-0.485-0.158-0.91-0.375-1.274-0.651
		c-0.364-0.275-0.669-0.59-0.917-0.945c-0.247-0.354-0.448-0.728-0.602-1.12c-0.154-0.392-0.266-0.789-0.336-1.19
		c-0.07-0.401-0.105-0.784-0.105-1.148c0-0.364,0.035-0.747,0.105-1.148c0.07-0.401,0.182-0.798,0.336-1.19
		c0.154-0.392,0.355-0.766,0.602-1.12c0.248-0.354,0.553-0.67,0.917-0.945c0.364-0.275,0.789-0.492,1.274-0.651S15.341,1,15.966,1
		c0.625,0,1.181,0.079,1.666,0.238s0.91,0.376,1.274,0.651c0.364,0.275,0.669,0.591,0.917,0.945c0.247,0.354,0.448,0.728,0.602,1.12
		c0.154,0.392,0.266,0.789,0.336,1.19C20.831,5.545,20.866,5.928,20.866,6.292z M19.466,6.292c0-0.588-0.079-1.132-0.238-1.631
		c-0.159-0.499-0.39-0.931-0.693-1.295c-0.304-0.364-0.672-0.648-1.106-0.854c-0.434-0.205-0.922-0.308-1.463-0.308
		c-0.551,0-1.041,0.103-1.47,0.308c-0.43,0.206-0.796,0.49-1.099,0.854c-0.303,0.364-0.534,0.796-0.693,1.295
		c-0.159,0.5-0.238,1.043-0.238,1.631s0.08,1.132,0.238,1.631c0.159,0.5,0.39,0.931,0.693,1.295
		c0.303,0.364,0.669,0.649,1.099,0.854c0.429,0.206,0.919,0.308,1.47,0.308c0.542,0,1.029-0.103,1.463-0.308
		c0.434-0.205,0.802-0.49,1.106-0.854c0.303-0.364,0.534-0.795,0.693-1.295C19.387,7.424,19.466,6.88,19.466,6.292z"/>
	<path fill="#FFFFFF" d="M26.578,8.392l-1.051,2.926h-1.4l3.781-10.052h1.539l3.641,10.052h-1.484l-0.994-2.926H26.578z
		 M30.119,7.188l-1.482-4.424h-0.029l-1.609,4.424H30.119z"/>
	<path fill="#FFFFFF" d="M37.203,1.266h4.074c0.654,0,1.242,0.119,1.764,0.357c0.523,0.238,0.967,0.572,1.33,1.001
		c0.365,0.429,0.645,0.943,0.84,1.54c0.197,0.597,0.295,1.26,0.295,1.988c0,0.56-0.068,1.146-0.203,1.757
		c-0.135,0.612-0.369,1.169-0.699,1.673c-0.332,0.504-0.773,0.919-1.324,1.246c-0.551,0.327-1.236,0.49-2.057,0.49h-4.02V1.266z
		 M38.563,10.156h2.631c0.887,0,1.594-0.333,2.121-1.001c0.527-0.667,0.791-1.64,0.791-2.919c0-1.269-0.27-2.221-0.813-2.856
		c-0.541-0.635-1.273-0.952-2.197-0.952h-2.533V10.156z"/>
	<path fill="#FFFFFF" d="M51.609,11.318h-1.357V1.266h1.357V11.318z"/>
	<path fill="#FFFFFF" d="M63.396,1.266h1.316v10.052h-1.525l-5.109-8.12h-0.029v8.12h-1.314V1.266h1.609l5.025,8.12h0.027V1.266z"/>
	<path fill="#FFFFFF" d="M74.023,5.942h4.41v5.376h-0.883l-0.32-1.302c-0.346,0.476-0.813,0.856-1.4,1.141s-1.229,0.427-1.918,0.427
		c-0.43,0-0.809-0.035-1.135-0.105c-0.326-0.07-0.613-0.161-0.861-0.273c-0.246-0.112-0.457-0.233-0.629-0.364
		c-0.174-0.13-0.324-0.261-0.455-0.392c-0.383-0.364-0.682-0.739-0.896-1.127c-0.215-0.387-0.373-0.768-0.477-1.141
		c-0.102-0.373-0.162-0.728-0.182-1.064c-0.018-0.336-0.027-0.639-0.027-0.91c0-0.616,0.094-1.232,0.279-1.848
		c0.188-0.616,0.477-1.174,0.869-1.673c0.391-0.5,0.887-0.905,1.482-1.218C72.479,1.156,73.188,1,74.01,1
		c0.467,0,0.938,0.068,1.414,0.203c0.477,0.136,0.912,0.339,1.309,0.609s0.732,0.616,1.008,1.036c0.275,0.42,0.451,0.91,0.525,1.47
		h-1.316c-0.111-0.438-0.279-0.795-0.504-1.071s-0.477-0.49-0.756-0.644c-0.279-0.154-0.572-0.259-0.875-0.315
		c-0.303-0.056-0.596-0.084-0.875-0.084c-0.447,0-0.873,0.088-1.273,0.266c-0.402,0.178-0.752,0.439-1.051,0.784
		s-0.533,0.772-0.707,1.281c-0.172,0.509-0.258,1.09-0.258,1.743c0,0.514,0.049,1.018,0.146,1.512s0.273,0.938,0.525,1.33
		c0.252,0.392,0.592,0.707,1.021,0.945c0.43,0.238,0.98,0.357,1.652,0.357c0.121,0,0.264-0.007,0.426-0.021
		c0.164-0.014,0.334-0.042,0.512-0.084s0.361-0.105,0.553-0.189s0.381-0.201,0.566-0.35c0.439-0.345,0.734-0.742,0.883-1.19
		c0.148-0.448,0.225-0.942,0.225-1.484h-3.137V5.942z"/>
	<path fill="#FFFFFF" d="M84.943,11.318h-1.455V9.834h1.455V11.318z"/>
	<path fill="#FFFFFF" d="M91.635,11.318H90.18V9.834h1.455V11.318z"/>
	<path fill="#FFFFFF" d="M98.328,11.318h-1.457V9.834h1.457V11.318z"/>
</g>
</svg>
