<?xml version="1.0" encoding="utf-8"?>
<!-- Generator: Adobe Illustrator 16.2.0, SVG Export Plug-In . SVG Version: 6.00 Build 0)  -->
<!DOCTYPE svg PUBLIC "-//W3C//DTD SVG 1.1//EN" "http://www.w3.org/Graphics/SVG/1.1/DTD/svg11.dtd">
<svg version="1.1" id="Layer_1" xmlns="http://www.w3.org/2000/svg" xmlns:xlink="http://www.w3.org/1999/xlink" x="0px" y="0px"
	 width="50px" height="50px" viewBox="0 0 50 50" enable-background="new 0 0 50 50" xml:space="preserve">
<path fill="#FFFFFF" d="M32.295,30.148L28.5,26.5c0.535-0.874,0.843-1.896,0.843-2.987c0-3.221-2.675-5.83-5.977-5.83
	s-5.978,2.609-5.978,5.83c0,3.22,2.676,5.829,5.978,5.829c1.102,0,2.134-0.29,3.02-0.797l3.843,3.695
	c0.254,0.244,0.672,0.222,0.934-0.05l1.12-1.107C32.544,30.812,32.549,30.393,32.295,30.148z M23.366,27.836
	c-0.608,0-1.198-0.116-1.75-0.346c-0.534-0.22-1.013-0.534-1.424-0.935c-0.836-0.815-1.296-1.896-1.296-3.043
	c0-1.147,0.46-2.229,1.296-3.043c0.411-0.4,0.89-0.715,1.424-0.936c0.552-0.229,1.142-0.344,1.75-0.344
	c0.609,0,1.198,0.115,1.751,0.344c0.533,0.221,1.012,0.535,1.423,0.936c0.836,0.814,1.296,1.896,1.296,3.043
	c0,1.146-0.46,2.228-1.296,3.043c-0.411,0.4-0.89,0.715-1.423,0.935C24.564,27.72,23.976,27.836,23.366,27.836z"/>
</svg>
