<?xml version="1.0" encoding="utf-8"?>
<!-- Generator: Adobe Illustrator 16.2.0, SVG Export Plug-In . SVG Version: 6.00 Build 0)  -->
<!DOCTYPE svg PUBLIC "-//W3C//DTD SVG 1.1//EN" "http://www.w3.org/Graphics/SVG/1.1/DTD/svg11.dtd">
<svg version="1.1" id="Ebene_2" xmlns="http://www.w3.org/2000/svg" xmlns:xlink="http://www.w3.org/1999/xlink" x="0px" y="0px"
	 width="50px" height="50px" viewBox="0 0 50 50" enable-background="new 0 0 50 50" xml:space="preserve">
<path fill="#B3B2B3" d="M27.5,25.5c0,2.209-1.791,4-4,4s-4-1.791-4-4s1.791-4,4-4S27.5,23.291,27.5,25.5z M33.5,20.5v10
	c0,2.762-2.238,5-5,5h-10c-2.762,0-5-2.238-5-5v-10c0-2.762,2.238-5,5-5h10C31.262,15.5,33.5,17.738,33.5,20.5z M30.5,25.5
	c0-3.865-3.135-7-7-7s-7,3.135-7,7s3.135,7,7,7S30.5,29.365,30.5,25.5z M35.5,30.5l3.719,2.281l0.281-0.016V18.5h-0.313L35.5,20.688
	V30.5z"/>
</svg>
