<?xml version="1.0" encoding="utf-8"?>
<!-- Generator: Adobe Illustrator 16.2.0, SVG Export Plug-In . SVG Version: 6.00 Build 0)  -->
<!DOCTYPE svg PUBLIC "-//W3C//DTD SVG 1.1//EN" "http://www.w3.org/Graphics/SVG/1.1/DTD/svg11.dtd">
<svg version="1.1" id="Layer_1" xmlns="http://www.w3.org/2000/svg" xmlns:xlink="http://www.w3.org/1999/xlink" x="0px" y="0px"
	 width="50px" height="50px" viewBox="0 0 50 50" enable-background="new 0 0 50 50" xml:space="preserve">
<path fill="#B3B4B4" d="M39.858,15.79c-1.031,0.458-2.46,0.668-3.623,0.808c1.188-0.712,1.725-1.87,2.154-3.214
	c-1.111,0.66-1.968,1.17-3.278,1.427c-1.049-1.118-2.543-1.816-4.198-1.816c-3.177,0-5.754,2.576-5.754,5.752
	c0,0.451,0.052,0.89,0.149,1.311c-4.781-0.24-9.02-2.53-11.857-6.01c-0.495,0.849-0.778,1.837-0.778,2.892
	c0,1.995,1.015,3.756,2.559,4.788c-0.942-0.03-1.83-0.29-2.605-0.72c0,0.025,0,0.049,0,0.073c0,2.788,1.982,5.113,4.614,5.641
	c-0.483,0.131-0.991,0.201-1.516,0.201c-0.371,0-0.731-0.035-1.083-0.104c0.732,2.287,2.857,3.949,5.374,3.996
	c-1.969,1.543-4.449,2.461-7.145,2.461c-0.464,0-0.922-0.025-1.372-0.078c2.546,1.631,5.569,2.584,8.818,2.584
	c10.582,0,16.367-8.766,16.367-16.367c0-0.25-0.005-0.498-0.016-0.745C37.793,17.858,39.087,16.943,39.858,15.79z"/>
</svg>
